<?xml version="1.0" encoding="UTF-8" standalone="no"?>
<!DOCTYPE svg PUBLIC "-//W3C//DTD SVG 1.1//EN"
 "http://www.w3.org/Graphics/SVG/1.1/DTD/svg11.dtd">
<!-- Generated by graphviz version 2.38.0 (20140413.2041)
 -->
<!-- Title: relation Pages: 1 -->
<svg width="892pt" height="244pt"
 viewBox="0.00 0.00 892.03 244.00" xmlns="http://www.w3.org/2000/svg" xmlns:xlink="http://www.w3.org/1999/xlink">
<g id="graph0" class="graph" transform="scale(1 1) rotate(0) translate(4 240)">
<title>relation</title>
<polygon fill="white" stroke="none" points="-4,4 -4,-240 888.031,-240 888.031,4 -4,4"/>
<!-- 1131:::ns1::ns31::sub2 -->
<g id="node1" class="node"><title>1131:::ns1::ns31::sub2</title>
<g id="a_node1"><a xlink:title="::ns1::ns31::sub2">
<ellipse fill="none" stroke="red" cx="90.9919" cy="-118" rx="90.9839" ry="18"/>
<text text-anchor="middle" x="90.9919" y="-114.3" font-family="Times,serif" font-size="14.00">1131:::ns1::ns31::sub2</text>
</a>
</g>
</g>
<!-- 1128:::ns1::ns2::func3 -->
<g id="node2" class="node"><title>1128:::ns1::ns2::func3</title>
<g id="a_node2"><a xlink:title="::ns1::ns2::func3">
<ellipse fill="none" stroke="black" cx="307.676" cy="-118" rx="89.8845" ry="18"/>
<text text-anchor="middle" x="307.676" y="-114.3" font-family="Times,serif" font-size="14.00">1128:::ns1::ns2::func3</text>
</a>
</g>
</g>
<!-- 1131:::ns1::ns31::sub2&#45;&gt;1128:::ns1::ns2::func3 -->
<g id="edge10" class="edge"><title>1131:::ns1::ns31::sub2&#45;&gt;1128:::ns1::ns2::func3</title>
<path fill="none" stroke="black" d="M182.104,-118C190.599,-118 199.242,-118 207.812,-118"/>
<polygon fill="black" stroke="black" points="207.826,-121.5 217.826,-118 207.826,-114.5 207.826,-121.5"/>
</g>
<!-- 1128:::ns1::ns2::func3&#45;&gt;1128:::ns1::ns2::func3 -->
<g id="edge1" class="edge"><title>1128:::ns1::ns2::func3&#45;&gt;1128:::ns1::ns2::func3</title>
<path fill="none" stroke="black" d="M269.707,-134.664C261.27,-144.625 273.926,-154 307.676,-154 329.297,-154 342.261,-150.152 346.569,-144.768"/>
<polygon fill="black" stroke="black" points="350.041,-144.304 345.645,-134.664 343.07,-144.941 350.041,-144.304"/>
</g>
<!-- 1124:::ns1::ns2::func1 -->
<g id="node3" class="node"><title>1124:::ns1::ns2::func1</title>
<g id="a_node3"><a xlink:title="::ns1::ns2::func1">
<ellipse fill="none" stroke="black" cx="532.159" cy="-218" rx="89.8845" ry="18"/>
<text text-anchor="middle" x="532.159" y="-214.3" font-family="Times,serif" font-size="14.00">1124:::ns1::ns2::func1</text>
</a>
</g>
</g>
<!-- 1128:::ns1::ns2::func3&#45;&gt;1124:::ns1::ns2::func1 -->
<g id="edge3" class="edge"><title>1128:::ns1::ns2::func3&#45;&gt;1124:::ns1::ns2::func1</title>
<path fill="none" stroke="black" d="M333.919,-135.435C358.408,-151.695 397.086,-175.681 433.368,-191 442.774,-194.972 452.936,-198.529 463.027,-201.656"/>
<polygon fill="black" stroke="black" points="462.072,-205.024 472.655,-204.522 464.069,-198.315 462.072,-205.024"/>
</g>
<!-- 1126:::ns1::ns2::func2::2 -->
<g id="node4" class="node"><title>1126:::ns1::ns2::func2::2</title>
<g id="a_node4"><a xlink:title="::ns1::ns2::func2::2">
<ellipse fill="none" stroke="black" cx="532.159" cy="-164" rx="98.5829" ry="18"/>
<text text-anchor="middle" x="532.159" y="-160.3" font-family="Times,serif" font-size="14.00">1126:::ns1::ns2::func2::2</text>
</a>
</g>
</g>
<!-- 1128:::ns1::ns2::func3&#45;&gt;1126:::ns1::ns2::func2::2 -->
<g id="edge5" class="edge"><title>1128:::ns1::ns2::func3&#45;&gt;1126:::ns1::ns2::func2::2</title>
<path fill="none" stroke="black" d="M370.946,-130.875C397.393,-136.343 428.455,-142.765 456.152,-148.492"/>
<polygon fill="black" stroke="black" points="455.688,-151.97 466.189,-150.567 457.105,-145.115 455.688,-151.97"/>
</g>
<!-- 949:::Callback_t::2 -->
<g id="node5" class="node"><title>949:::Callback_t::2</title>
<g id="a_node5"><a xlink:title="::Callback_t::2">
<ellipse fill="none" stroke="black" cx="775.491" cy="-118" rx="78.7863" ry="18"/>
<text text-anchor="middle" x="775.491" y="-114.3" font-family="Times,serif" font-size="14.00">949:::Callback_t::2</text>
</a>
</g>
</g>
<!-- 1128:::ns1::ns2::func3&#45;&gt;949:::Callback_t::2 -->
<g id="edge4" class="edge"><title>1128:::ns1::ns2::func3&#45;&gt;949:::Callback_t::2</title>
<path fill="none" stroke="black" d="M397.389,-118C480.377,-118 603.633,-118 686.414,-118"/>
<polygon fill="black" stroke="black" points="686.556,-121.5 696.556,-118 686.556,-114.5 686.556,-121.5"/>
</g>
<!-- 1123:::ns1::ns2::func0 -->
<g id="node6" class="node"><title>1123:::ns1::ns2::func0</title>
<g id="a_node6"><a xlink:title="::ns1::ns2::func0">
<ellipse fill="none" stroke="black" cx="532.159" cy="-72" rx="89.8845" ry="18"/>
<text text-anchor="middle" x="532.159" y="-68.3" font-family="Times,serif" font-size="14.00">1123:::ns1::ns2::func0</text>
</a>
</g>
</g>
<!-- 1128:::ns1::ns2::func3&#45;&gt;1123:::ns1::ns2::func0 -->
<g id="edge2" class="edge"><title>1128:::ns1::ns2::func3&#45;&gt;1123:::ns1::ns2::func0</title>
<path fill="none" stroke="black" d="M370.946,-105.125C398.314,-99.4667 430.624,-92.7864 459.033,-86.9126"/>
<polygon fill="black" stroke="black" points="459.82,-90.324 468.904,-84.8716 458.403,-83.4689 459.82,-90.324"/>
</g>
<!-- 1127:::ns1::ns2::func5 -->
<g id="node7" class="node"><title>1127:::ns1::ns2::func5</title>
<g id="a_node7"><a xlink:title="::ns1::ns2::func5">
<ellipse fill="none" stroke="black" cx="532.159" cy="-18" rx="89.8845" ry="18"/>
<text text-anchor="middle" x="532.159" y="-14.3" font-family="Times,serif" font-size="14.00">1127:::ns1::ns2::func5</text>
</a>
</g>
</g>
<!-- 1128:::ns1::ns2::func3&#45;&gt;1127:::ns1::ns2::func5 -->
<g id="edge6" class="edge"><title>1128:::ns1::ns2::func3&#45;&gt;1127:::ns1::ns2::func5</title>
<path fill="none" stroke="black" d="M333.919,-100.565C358.408,-84.3046 397.086,-60.3191 433.368,-45 442.774,-41.0283 452.936,-37.4709 463.027,-34.3437"/>
<polygon fill="black" stroke="black" points="464.069,-37.6855 472.655,-31.4778 462.072,-30.9764 464.069,-37.6855"/>
</g>
<!-- 1124:::ns1::ns2::func1&#45;&gt;949:::Callback_t::2 -->
<g id="edge9" class="edge"><title>1124:::ns1::ns2::func1&#45;&gt;949:::Callback_t::2</title>
<path fill="none" stroke="black" d="M590.413,-204.269C603.879,-200.471 618.06,-195.999 630.95,-191 668.231,-176.543 708.658,-155.455 737.079,-139.657"/>
<polygon fill="black" stroke="black" points="738.856,-142.674 745.866,-134.729 735.432,-136.568 738.856,-142.674"/>
</g>
<!-- 1127:::ns1::ns2::func5&#45;&gt;949:::Callback_t::2 -->
<g id="edge8" class="edge"><title>1127:::ns1::ns2::func5&#45;&gt;949:::Callback_t::2</title>
<path fill="none" stroke="black" d="M590.413,-31.7311C603.879,-35.5292 618.06,-40.0011 630.95,-45 668.231,-59.4569 708.658,-80.5451 737.079,-96.3428"/>
<polygon fill="black" stroke="black" points="735.432,-99.4318 745.866,-101.271 738.856,-93.3265 735.432,-99.4318"/>
</g>
<!-- 1133:::TestClass::TestClass -->
<g id="node8" class="node"><title>1133:::TestClass::TestClass</title>
<g id="a_node8"><a xlink:title="::TestClass::TestClass">
<ellipse fill="none" stroke="black" cx="775.491" cy="-18" rx="108.581" ry="18"/>
<text text-anchor="middle" x="775.491" y="-14.3" font-family="Times,serif" font-size="14.00">1133:::TestClass::TestClass</text>
</a>
</g>
</g>
<!-- 1127:::ns1::ns2::func5&#45;&gt;1133:::TestClass::TestClass -->
<g id="edge7" class="edge"><title>1127:::ns1::ns2::func5&#45;&gt;1133:::TestClass::TestClass</title>
<path fill="none" stroke="black" d="M621.994,-18C633.22,-18 644.843,-18 656.433,-18"/>
<polygon fill="black" stroke="black" points="656.599,-21.5001 666.599,-18 656.599,-14.5001 656.599,-21.5001"/>
</g>
</g>
</svg>
