<?xml version="1.0" encoding="UTF-8" standalone="no"?>
<!DOCTYPE svg PUBLIC "-//W3C//DTD SVG 1.1//EN"
 "http://www.w3.org/Graphics/SVG/1.1/DTD/svg11.dtd">
<!-- Generated by graphviz version 2.38.0 (20140413.2041)
 -->
<!-- Title: relation Pages: 1 -->
<svg width="787pt" height="193pt"
 viewBox="0.00 0.00 786.74 193.00" xmlns="http://www.w3.org/2000/svg" xmlns:xlink="http://www.w3.org/1999/xlink">
<g id="graph0" class="graph" transform="scale(1 1) rotate(0) translate(4 189)">
<title>relation</title>
<polygon fill="white" stroke="none" points="-4,4 -4,-189 782.74,-189 782.74,4 -4,4"/>
<!-- 782:::Callback_t::2 -->
<g id="node1" class="node"><title>782:::Callback_t::2</title>
<g id="a_node1"><a xlink:title="::Callback_t::2">
<ellipse fill="none" stroke="red" cx="78.643" cy="-99" rx="78.7863" ry="18"/>
<text text-anchor="middle" x="78.643" y="-95.3" font-family="Times,serif" font-size="14.00">782:::Callback_t::2</text>
</a>
</g>
</g>
<!-- 807:::ns1::ns2::func1 -->
<g id="node2" class="node"><title>807:::ns1::ns2::func1</title>
<g id="a_node2"><a xlink:title="::ns1::ns2::func1">
<ellipse fill="none" stroke="black" cx="278.428" cy="-126" rx="85.2851" ry="18"/>
<text text-anchor="middle" x="278.428" y="-122.3" font-family="Times,serif" font-size="14.00">807:::ns1::ns2::func1</text>
</a>
</g>
</g>
<!-- 807:::ns1::ns2::func1&#45;&gt;782:::Callback_t::2 -->
<g id="edge6" class="edge"><title>807:::ns1::ns2::func1&#45;&gt;782:::Callback_t::2</title>
<path fill="none" stroke="black" d="M206.582,-116.329C190.426,-114.123 173.182,-111.769 156.778,-109.53"/>
<polygon fill="black" stroke="black" points="157.072,-106.038 146.69,-108.153 156.125,-112.973 157.072,-106.038"/>
</g>
<!-- 810:::ns1::ns2::func3 -->
<g id="node3" class="node"><title>810:::ns1::ns2::func3</title>
<g id="a_node3"><a xlink:title="::ns1::ns2::func3">
<ellipse fill="none" stroke="black" cx="484.713" cy="-149" rx="85.2851" ry="18"/>
<text text-anchor="middle" x="484.713" y="-145.3" font-family="Times,serif" font-size="14.00">810:::ns1::ns2::func3</text>
</a>
</g>
</g>
<!-- 810:::ns1::ns2::func3&#45;&gt;782:::Callback_t::2 -->
<g id="edge5" class="edge"><title>810:::ns1::ns2::func3&#45;&gt;782:::Callback_t::2</title>
<path fill="none" stroke="black" d="M413.817,-159.016C354.391,-165.392 267.195,-169.667 193.286,-153 165.691,-146.777 136.934,-133.032 115.252,-120.967"/>
<polygon fill="black" stroke="black" points="116.837,-117.842 106.417,-115.926 113.368,-123.922 116.837,-117.842"/>
</g>
<!-- 810:::ns1::ns2::func3&#45;&gt;807:::ns1::ns2::func1 -->
<g id="edge7" class="edge"><title>810:::ns1::ns2::func3&#45;&gt;807:::ns1::ns2::func1</title>
<path fill="none" stroke="black" d="M409.095,-140.599C394.463,-138.951 379.017,-137.212 364.084,-135.531"/>
<polygon fill="black" stroke="black" points="364.174,-132.019 353.845,-134.378 363.39,-138.975 364.174,-132.019"/>
</g>
<!-- 810:::ns1::ns2::func3&#45;&gt;810:::ns1::ns2::func3 -->
<g id="edge1" class="edge"><title>810:::ns1::ns2::func3&#45;&gt;810:::ns1::ns2::func3</title>
<path fill="none" stroke="black" d="M520.924,-165.664C528.971,-175.625 516.901,-185 484.713,-185 464.093,-185 451.729,-181.152 447.621,-175.768"/>
<polygon fill="black" stroke="black" points="451.12,-175.93 448.502,-165.664 444.147,-175.322 451.12,-175.93"/>
</g>
<!-- 812:::ns1::ns2::func5 -->
<g id="node4" class="node"><title>812:::ns1::ns2::func5</title>
<g id="a_node4"><a xlink:title="::ns1::ns2::func5">
<ellipse fill="none" stroke="black" cx="278.428" cy="-72" rx="85.2851" ry="18"/>
<text text-anchor="middle" x="278.428" y="-68.3" font-family="Times,serif" font-size="14.00">812:::ns1::ns2::func5</text>
</a>
</g>
</g>
<!-- 812:::ns1::ns2::func5&#45;&gt;782:::Callback_t::2 -->
<g id="edge3" class="edge"><title>812:::ns1::ns2::func5&#45;&gt;782:::Callback_t::2</title>
<path fill="none" stroke="black" d="M206.582,-81.6714C190.426,-83.8768 173.182,-86.2308 156.778,-88.4701"/>
<polygon fill="black" stroke="black" points="156.125,-85.0268 146.69,-89.8473 157.072,-91.9624 156.125,-85.0268"/>
</g>
<!-- 815:::ns1::sub2 -->
<g id="node5" class="node"><title>815:::ns1::sub2</title>
<g id="a_node5"><a xlink:title="::ns1::sub2">
<ellipse fill="none" stroke="black" cx="278.428" cy="-18" rx="64.9885" ry="18"/>
<text text-anchor="middle" x="278.428" y="-14.3" font-family="Times,serif" font-size="14.00">815:::ns1::sub2</text>
</a>
</g>
</g>
<!-- 815:::ns1::sub2&#45;&gt;782:::Callback_t::2 -->
<g id="edge4" class="edge"><title>815:::ns1::sub2&#45;&gt;782:::Callback_t::2</title>
<path fill="none" stroke="black" d="M232.932,-31.0611C220.019,-35.1778 205.981,-39.9729 193.286,-45 168.695,-54.7379 141.943,-67.3443 120.576,-77.9274"/>
<polygon fill="black" stroke="black" points="118.85,-74.8771 111.468,-82.477 121.978,-81.1393 118.85,-74.8771"/>
</g>
<!-- 814:::ns1::ns31::sub2 -->
<g id="node6" class="node"><title>814:::ns1::ns31::sub2</title>
<g id="a_node6"><a xlink:title="::ns1::ns31::sub2">
<ellipse fill="none" stroke="black" cx="692.298" cy="-149" rx="86.3847" ry="18"/>
<text text-anchor="middle" x="692.298" y="-145.3" font-family="Times,serif" font-size="14.00">814:::ns1::ns31::sub2</text>
</a>
</g>
</g>
<!-- 814:::ns1::ns31::sub2&#45;&gt;810:::ns1::ns2::func3 -->
<g id="edge2" class="edge"><title>814:::ns1::ns31::sub2&#45;&gt;810:::ns1::ns2::func3</title>
<path fill="none" stroke="black" d="M605.6,-149C597.219,-149 588.682,-149 580.22,-149"/>
<polygon fill="black" stroke="black" points="579.952,-145.5 569.952,-149 579.952,-152.5 579.952,-145.5"/>
</g>
</g>
</svg>
