<?xml version="1.0" encoding="UTF-8" standalone="no"?>
<!DOCTYPE svg PUBLIC "-//W3C//DTD SVG 1.1//EN"
 "http://www.w3.org/Graphics/SVG/1.1/DTD/svg11.dtd">
<!-- Generated by graphviz version 2.38.0 (20140413.2041)
 -->
<!-- Title: relation Pages: 1 -->
<svg width="814pt" height="170pt"
 viewBox="0.00 0.00 814.04 170.19" xmlns="http://www.w3.org/2000/svg" xmlns:xlink="http://www.w3.org/1999/xlink">
<g id="graph0" class="graph" transform="scale(1 1) rotate(0) translate(4 166.187)">
<title>relation</title>
<polygon fill="white" stroke="none" points="-4,4 -4,-166.187 810.038,-166.187 810.038,4 -4,4"/>
<!-- 949:::Callback_t::2 -->
<g id="node1" class="node"><title>949:::Callback_t::2</title>
<g id="a_node1"><a xlink:title="::Callback_t::2">
<ellipse fill="none" stroke="red" cx="78.643" cy="-99" rx="78.7863" ry="18"/>
<text text-anchor="middle" x="78.643" y="-95.3" font-family="Times,serif" font-size="14.00">949:::Callback_t::2</text>
</a>
</g>
</g>
<!-- 1124:::ns1::ns2::func1 -->
<g id="node2" class="node"><title>1124:::ns1::ns2::func1</title>
<g id="a_node2"><a xlink:title="::ns1::ns2::func1">
<ellipse fill="none" stroke="black" cx="282.978" cy="-126" rx="89.8845" ry="18"/>
<text text-anchor="middle" x="282.978" y="-122.3" font-family="Times,serif" font-size="14.00">1124:::ns1::ns2::func1</text>
</a>
</g>
</g>
<!-- 1124:::ns1::ns2::func1&#45;&gt;949:::Callback_t::2 -->
<g id="edge2" class="edge"><title>1124:::ns1::ns2::func1&#45;&gt;949:::Callback_t::2</title>
<path fill="none" stroke="black" d="M207.785,-116.1C191.346,-113.906 173.883,-111.576 157.31,-109.364"/>
<polygon fill="black" stroke="black" points="157.498,-105.858 147.123,-108.005 156.572,-112.797 157.498,-105.858"/>
</g>
<!-- 1127:::ns1::ns2::func5 -->
<g id="node3" class="node"><title>1127:::ns1::ns2::func5</title>
<g id="a_node3"><a xlink:title="::ns1::ns2::func5">
<ellipse fill="none" stroke="black" cx="282.978" cy="-72" rx="89.8845" ry="18"/>
<text text-anchor="middle" x="282.978" y="-68.3" font-family="Times,serif" font-size="14.00">1127:::ns1::ns2::func5</text>
</a>
</g>
</g>
<!-- 1127:::ns1::ns2::func5&#45;&gt;949:::Callback_t::2 -->
<g id="edge5" class="edge"><title>1127:::ns1::ns2::func5&#45;&gt;949:::Callback_t::2</title>
<path fill="none" stroke="black" d="M207.785,-81.9005C191.346,-84.0941 173.883,-86.4245 157.31,-88.636"/>
<polygon fill="black" stroke="black" points="156.572,-85.2033 147.123,-89.9953 157.498,-92.1418 156.572,-85.2033"/>
</g>
<!-- 1128:::ns1::ns2::func3 -->
<g id="node4" class="node"><title>1128:::ns1::ns2::func3</title>
<g id="a_node4"><a xlink:title="::ns1::ns2::func3">
<ellipse fill="none" stroke="black" cx="498.362" cy="-126" rx="89.8845" ry="18"/>
<text text-anchor="middle" x="498.362" y="-122.3" font-family="Times,serif" font-size="14.00">1128:::ns1::ns2::func3</text>
</a>
</g>
</g>
<!-- 1128:::ns1::ns2::func3&#45;&gt;949:::Callback_t::2 -->
<g id="edge4" class="edge"><title>1128:::ns1::ns2::func3&#45;&gt;949:::Callback_t::2</title>
<path fill="none" stroke="black" d="M444.515,-140.451C383.337,-154.943 279.884,-172.528 193.286,-153 165.691,-146.777 136.934,-133.032 115.252,-120.967"/>
<polygon fill="black" stroke="black" points="116.837,-117.842 106.417,-115.926 113.368,-123.922 116.837,-117.842"/>
</g>
<!-- 1128:::ns1::ns2::func3&#45;&gt;1124:::ns1::ns2::func1 -->
<g id="edge1" class="edge"><title>1128:::ns1::ns2::func3&#45;&gt;1124:::ns1::ns2::func1</title>
<path fill="none" stroke="black" d="M408.413,-126C400.039,-126 391.515,-126 383.056,-126"/>
<polygon fill="black" stroke="black" points="382.783,-122.5 372.783,-126 382.783,-129.5 382.783,-122.5"/>
</g>
<!-- 1128:::ns1::ns2::func3&#45;&gt;1127:::ns1::ns2::func5 -->
<g id="edge8" class="edge"><title>1128:::ns1::ns2::func3&#45;&gt;1127:::ns1::ns2::func5</title>
<path fill="none" stroke="black" d="M441.855,-111.953C413.564,-104.794 378.981,-96.0419 349.401,-88.5562"/>
<polygon fill="black" stroke="black" points="350.131,-85.1306 339.578,-86.0703 348.413,-91.9167 350.131,-85.1306"/>
</g>
<!-- 1128:::ns1::ns2::func3&#45;&gt;1128:::ns1::ns2::func3 -->
<g id="edge6" class="edge"><title>1128:::ns1::ns2::func3&#45;&gt;1128:::ns1::ns2::func3</title>
<path fill="none" stroke="black" d="M535.979,-142.664C544.339,-152.625 531.8,-162 498.362,-162 476.941,-162 464.097,-158.152 459.83,-152.768"/>
<polygon fill="black" stroke="black" points="463.328,-152.939 460.745,-142.664 456.357,-152.307 463.328,-152.939"/>
</g>
<!-- 1132:::ns1::sub2 -->
<g id="node5" class="node"><title>1132:::ns1::sub2</title>
<g id="a_node5"><a xlink:title="::ns1::sub2">
<ellipse fill="none" stroke="black" cx="282.978" cy="-18" rx="69.5877" ry="18"/>
<text text-anchor="middle" x="282.978" y="-14.3" font-family="Times,serif" font-size="14.00">1132:::ns1::sub2</text>
</a>
</g>
</g>
<!-- 1132:::ns1::sub2&#45;&gt;949:::Callback_t::2 -->
<g id="edge3" class="edge"><title>1132:::ns1::sub2&#45;&gt;949:::Callback_t::2</title>
<path fill="none" stroke="black" d="M234.586,-31.0123C221.102,-35.0948 206.494,-39.884 193.286,-45 168.623,-54.5532 141.867,-67.1497 120.516,-77.7736"/>
<polygon fill="black" stroke="black" points="118.781,-74.728 111.416,-82.3441 121.923,-80.9833 118.781,-74.728"/>
</g>
<!-- 1131:::ns1::ns31::sub2 -->
<g id="node6" class="node"><title>1131:::ns1::ns31::sub2</title>
<g id="a_node6"><a xlink:title="::ns1::ns31::sub2">
<ellipse fill="none" stroke="black" cx="715.046" cy="-126" rx="90.9839" ry="18"/>
<text text-anchor="middle" x="715.046" y="-122.3" font-family="Times,serif" font-size="14.00">1131:::ns1::ns31::sub2</text>
</a>
</g>
</g>
<!-- 1131:::ns1::ns31::sub2&#45;&gt;1128:::ns1::ns2::func3 -->
<g id="edge7" class="edge"><title>1131:::ns1::ns31::sub2&#45;&gt;1128:::ns1::ns2::func3</title>
<path fill="none" stroke="black" d="M623.934,-126C615.439,-126 606.796,-126 598.226,-126"/>
<polygon fill="black" stroke="black" points="598.212,-122.5 588.212,-126 598.212,-129.5 598.212,-122.5"/>
</g>
</g>
</svg>
