<?xml version="1.0" encoding="UTF-8" standalone="no"?>
<!DOCTYPE svg PUBLIC "-//W3C//DTD SVG 1.1//EN"
 "http://www.w3.org/Graphics/SVG/1.1/DTD/svg11.dtd">
<!-- Generated by graphviz version 2.38.0 (20140413.2041)
 -->
<!-- Title: relation Pages: 1 -->
<svg width="806pt" height="190pt"
 viewBox="0.00 0.00 806.24 190.00" xmlns="http://www.w3.org/2000/svg" xmlns:xlink="http://www.w3.org/1999/xlink">
<g id="graph0" class="graph" transform="scale(1 1) rotate(0) translate(4 186)">
<title>relation</title>
<polygon fill="white" stroke="none" points="-4,4 -4,-186 802.239,-186 802.239,4 -4,4"/>
<!-- 814:::ns1::ns31::sub2 -->
<g id="node1" class="node"><title>814:::ns1::ns31::sub2</title>
<g id="a_node1"><a xlink:title="::ns1::ns31::sub2">
<ellipse fill="none" stroke="red" cx="86.4423" cy="-87" rx="86.3847" ry="18"/>
<text text-anchor="middle" x="86.4423" y="-83.3" font-family="Times,serif" font-size="14.00">814:::ns1::ns31::sub2</text>
</a>
</g>
</g>
<!-- 810:::ns1::ns2::func3 -->
<g id="node2" class="node"><title>810:::ns1::ns2::func3</title>
<g id="a_node2"><a xlink:title="::ns1::ns2::func3">
<ellipse fill="none" stroke="black" cx="294.027" cy="-87" rx="85.2851" ry="18"/>
<text text-anchor="middle" x="294.027" y="-83.3" font-family="Times,serif" font-size="14.00">810:::ns1::ns2::func3</text>
</a>
</g>
</g>
<!-- 814:::ns1::ns31::sub2&#45;&gt;810:::ns1::ns2::func3 -->
<g id="edge1" class="edge"><title>814:::ns1::ns31::sub2&#45;&gt;810:::ns1::ns2::func3</title>
<path fill="none" stroke="black" d="M173.14,-87C181.521,-87 190.058,-87 198.52,-87"/>
<polygon fill="black" stroke="black" points="198.789,-90.5001 208.789,-87 198.789,-83.5001 198.789,-90.5001"/>
</g>
<!-- 810:::ns1::ns2::func3&#45;&gt;810:::ns1::ns2::func3 -->
<g id="edge3" class="edge"><title>810:::ns1::ns2::func3&#45;&gt;810:::ns1::ns2::func3</title>
<path fill="none" stroke="black" d="M257.816,-103.664C249.769,-113.625 261.84,-123 294.027,-123 314.647,-123 327.011,-119.152 331.119,-113.768"/>
<polygon fill="black" stroke="black" points="334.594,-113.322 330.238,-103.664 327.62,-113.93 334.594,-113.322"/>
</g>
<!-- 807:::ns1::ns2::func1 -->
<g id="node3" class="node"><title>807:::ns1::ns2::func1</title>
<g id="a_node3"><a xlink:title="::ns1::ns2::func1">
<ellipse fill="none" stroke="black" cx="510.061" cy="-164" rx="85.2851" ry="18"/>
<text text-anchor="middle" x="510.061" y="-160.3" font-family="Times,serif" font-size="14.00">807:::ns1::ns2::func1</text>
</a>
</g>
</g>
<!-- 810:::ns1::ns2::func3&#45;&gt;807:::ns1::ns2::func1 -->
<g id="edge6" class="edge"><title>810:::ns1::ns2::func3&#45;&gt;807:::ns1::ns2::func1</title>
<path fill="none" stroke="black" d="M331.149,-103.304C354.787,-113.656 386.494,-126.947 415.17,-137 425.116,-140.487 435.766,-143.872 446.191,-146.999"/>
<polygon fill="black" stroke="black" points="445.507,-150.446 456.088,-149.913 447.484,-143.731 445.507,-150.446"/>
</g>
<!-- 809:::ns1::ns2::func2::2 -->
<g id="node4" class="node"><title>809:::ns1::ns2::func2::2</title>
<g id="a_node4"><a xlink:title="::ns1::ns2::func2::2">
<ellipse fill="none" stroke="black" cx="510.061" cy="-110" rx="94.7833" ry="18"/>
<text text-anchor="middle" x="510.061" y="-106.3" font-family="Times,serif" font-size="14.00">809:::ns1::ns2::func2::2</text>
</a>
</g>
</g>
<!-- 810:::ns1::ns2::func3&#45;&gt;809:::ns1::ns2::func2::2 -->
<g id="edge2" class="edge"><title>810:::ns1::ns2::func3&#45;&gt;809:::ns1::ns2::func2::2</title>
<path fill="none" stroke="black" d="M370.187,-95.0766C385.304,-96.7011 401.355,-98.426 416.974,-100.104"/>
<polygon fill="black" stroke="black" points="416.844,-103.61 427.16,-101.199 417.592,-96.6505 416.844,-103.61"/>
</g>
<!-- 782:::Callback_t::2 -->
<g id="node5" class="node"><title>782:::Callback_t::2</title>
<g id="a_node5"><a xlink:title="::Callback_t::2">
<ellipse fill="none" stroke="black" cx="719.596" cy="-114" rx="78.7863" ry="18"/>
<text text-anchor="middle" x="719.596" y="-110.3" font-family="Times,serif" font-size="14.00">782:::Callback_t::2</text>
</a>
</g>
</g>
<!-- 810:::ns1::ns2::func3&#45;&gt;782:::Callback_t::2 -->
<g id="edge5" class="edge"><title>810:::ns1::ns2::func3&#45;&gt;782:::Callback_t::2</title>
<path fill="none" stroke="black" d="M372.139,-79.7973C435.073,-75.4059 526.151,-72.4449 604.953,-83 624.975,-85.6819 646.466,-90.9097 665.311,-96.3194"/>
<polygon fill="black" stroke="black" points="664.321,-99.6764 674.903,-99.1524 666.304,-92.9631 664.321,-99.6764"/>
</g>
<!-- 806:::ns1::ns2::func0 -->
<g id="node6" class="node"><title>806:::ns1::ns2::func0</title>
<g id="a_node6"><a xlink:title="::ns1::ns2::func0">
<ellipse fill="none" stroke="black" cx="510.061" cy="-18" rx="85.2851" ry="18"/>
<text text-anchor="middle" x="510.061" y="-14.3" font-family="Times,serif" font-size="14.00">806:::ns1::ns2::func0</text>
</a>
</g>
</g>
<!-- 810:::ns1::ns2::func3&#45;&gt;806:::ns1::ns2::func0 -->
<g id="edge4" class="edge"><title>810:::ns1::ns2::func3&#45;&gt;806:::ns1::ns2::func0</title>
<path fill="none" stroke="black" d="M341.469,-72.028C374.172,-61.4853 418.128,-47.3148 452.819,-36.1313"/>
<polygon fill="black" stroke="black" points="453.897,-39.4613 462.34,-33.0617 451.749,-32.7989 453.897,-39.4613"/>
</g>
<!-- 807:::ns1::ns2::func1&#45;&gt;782:::Callback_t::2 -->
<g id="edge7" class="edge"><title>807:::ns1::ns2::func1&#45;&gt;782:::Callback_t::2</title>
<path fill="none" stroke="black" d="M566.95,-150.535C594.12,-143.989 626.9,-136.092 655.022,-129.316"/>
<polygon fill="black" stroke="black" points="655.856,-132.716 664.758,-126.971 654.216,-125.911 655.856,-132.716"/>
</g>
</g>
</svg>
