<?xml version="1.0" encoding="UTF-8" standalone="no"?>
<!DOCTYPE svg PUBLIC "-//W3C//DTD SVG 1.1//EN"
 "http://www.w3.org/Graphics/SVG/1.1/DTD/svg11.dtd">
<!-- Generated by graphviz version 2.38.0 (20140413.2041)
 -->
<!-- Title: relation Pages: 1 -->
<svg width="1162pt" height="526pt"
 viewBox="0.00 0.00 1162.12 526.00" xmlns="http://www.w3.org/2000/svg" xmlns:xlink="http://www.w3.org/1999/xlink">
<g id="graph0" class="graph" transform="scale(1 1) rotate(0) translate(4 522)">
<title>relation</title>
<polygon fill="white" stroke="none" points="-4,4 -4,-522 1158.12,-522 1158.12,4 -4,4"/>
<!-- 2:hoge.cpp -->
<g id="node1" class="node"><title>2:hoge.cpp</title>
<g id="a_node1"><a xlink:title="|/test/hoge.cpp">
<ellipse fill="none" stroke="red" cx="50.0456" cy="-145" rx="50.0912" ry="18"/>
<text text-anchor="middle" x="50.0456" y="-141.3" font-family="Times,serif" font-size="14.00">2:hoge.cpp</text>
</a>
</g>
</g>
<!-- 10:stdio.h -->
<g id="node2" class="node"><title>10:stdio.h</title>
<g id="a_node2"><a xlink:title="/usr/include/stdio.h">
<ellipse fill="none" stroke="black" cx="182.237" cy="-172" rx="46.2923" ry="18"/>
<text text-anchor="middle" x="182.237" y="-168.3" font-family="Times,serif" font-size="14.00">10:stdio.h</text>
</a>
</g>
</g>
<!-- 2:hoge.cpp&#45;&gt;10:stdio.h -->
<g id="edge3" class="edge"><title>2:hoge.cpp&#45;&gt;10:stdio.h</title>
<path fill="none" stroke="black" d="M93.6751,-153.841C105.61,-156.316 118.693,-159.029 131.024,-161.586"/>
<polygon fill="black" stroke="black" points="130.661,-165.086 141.163,-163.689 132.082,-158.231 130.661,-165.086"/>
</g>
<!-- 15:time.h -->
<g id="node3" class="node"><title>15:time.h</title>
<g id="a_node3"><a xlink:title="/usr/include/time.h">
<ellipse fill="none" stroke="black" cx="182.237" cy="-374" rx="44.6926" ry="18"/>
<text text-anchor="middle" x="182.237" y="-370.3" font-family="Times,serif" font-size="14.00">15:time.h</text>
</a>
</g>
</g>
<!-- 2:hoge.cpp&#45;&gt;15:time.h -->
<g id="edge4" class="edge"><title>2:hoge.cpp&#45;&gt;15:time.h</title>
<path fill="none" stroke="black" d="M61.0453,-162.589C83.7646,-202.551 139.374,-300.364 166.233,-347.609"/>
<polygon fill="black" stroke="black" points="163.218,-349.388 171.203,-356.351 169.304,-345.928 163.218,-349.388"/>
</g>
<!-- 16:hoge.h -->
<g id="node4" class="node"><title>16:hoge.h</title>
<g id="a_node4"><a xlink:title="|/test/hoge.h">
<ellipse fill="none" stroke="black" cx="182.237" cy="-118" rx="46.2923" ry="18"/>
<text text-anchor="middle" x="182.237" y="-114.3" font-family="Times,serif" font-size="14.00">16:hoge.h</text>
</a>
</g>
</g>
<!-- 2:hoge.cpp&#45;&gt;16:hoge.h -->
<g id="edge1" class="edge"><title>2:hoge.cpp&#45;&gt;16:hoge.h</title>
<path fill="none" stroke="black" d="M93.6751,-136.159C105.61,-133.684 118.693,-130.971 131.024,-128.414"/>
<polygon fill="black" stroke="black" points="132.082,-131.769 141.163,-126.311 130.661,-124.914 132.082,-131.769"/>
</g>
<!-- 13:field.h -->
<g id="node5" class="node"><title>13:field.h</title>
<g id="a_node5"><a xlink:title="|/test/field.h">
<ellipse fill="none" stroke="black" cx="182.237" cy="-64" rx="44.6926" ry="18"/>
<text text-anchor="middle" x="182.237" y="-60.3" font-family="Times,serif" font-size="14.00">13:field.h</text>
</a>
</g>
</g>
<!-- 2:hoge.cpp&#45;&gt;13:field.h -->
<g id="edge2" class="edge"><title>2:hoge.cpp&#45;&gt;13:field.h</title>
<path fill="none" stroke="black" d="M75.4991,-129.23C92.4365,-118.366 115.545,-103.664 136.091,-91 139.765,-88.7359 143.62,-86.3877 147.465,-84.0637"/>
<polygon fill="black" stroke="black" points="149.56,-86.8879 156.327,-78.7357 145.954,-80.8886 149.56,-86.8879"/>
</g>
<!-- 9:features.h -->
<g id="node6" class="node"><title>9:features.h</title>
<g id="a_node6"><a xlink:title="/usr/include/features.h">
<ellipse fill="none" stroke="black" cx="777.297" cy="-386" rx="51.9908" ry="18"/>
<text text-anchor="middle" x="777.297" y="-382.3" font-family="Times,serif" font-size="14.00">9:features.h</text>
</a>
</g>
</g>
<!-- 10:stdio.h&#45;&gt;9:features.h -->
<g id="edge13" class="edge"><title>10:stdio.h&#45;&gt;9:features.h</title>
<path fill="none" stroke="black" d="M184.947,-189.999C189.676,-228.568 206.684,-318.927 264.383,-359 300.591,-384.147 587.397,-386.542 715.205,-386.34"/>
<polygon fill="black" stroke="black" points="715.238,-389.84 725.231,-386.318 715.223,-382.84 715.238,-389.84"/>
</g>
<!-- 20:stddef.h -->
<g id="node7" class="node"><title>20:stddef.h</title>
<g id="a_node7"><a xlink:title="/usr/lib/llvm&#45;3.8/lib/clang/3.8.0/include/stddef.h">
<ellipse fill="none" stroke="black" cx="634.706" cy="-176" rx="50.0912" ry="18"/>
<text text-anchor="middle" x="634.706" y="-172.3" font-family="Times,serif" font-size="14.00">20:stddef.h</text>
</a>
</g>
</g>
<!-- 10:stdio.h&#45;&gt;20:stddef.h -->
<g id="edge16" class="edge"><title>10:stdio.h&#45;&gt;20:stddef.h</title>
<path fill="none" stroke="black" d="M228.492,-172.402C310.343,-173.129 482.938,-174.661 574.213,-175.472"/>
<polygon fill="black" stroke="black" points="574.364,-178.973 584.394,-175.562 574.426,-171.973 574.364,-178.973"/>
</g>
<!-- 24:types.h -->
<g id="node8" class="node"><title>24:types.h</title>
<g id="a_node8"><a xlink:title="/usr/include/x86_64&#45;linux&#45;gnu/bits/types.h">
<ellipse fill="none" stroke="black" cx="634.706" cy="-294" rx="47.3916" ry="18"/>
<text text-anchor="middle" x="634.706" y="-290.3" font-family="Times,serif" font-size="14.00">24:types.h</text>
</a>
</g>
</g>
<!-- 10:stdio.h&#45;&gt;24:types.h -->
<g id="edge12" class="edge"><title>10:stdio.h&#45;&gt;24:types.h</title>
<path fill="none" stroke="black" d="M221.826,-181.317C288.682,-197.618 430.255,-232.839 548.661,-267 561.708,-270.764 575.791,-275.116 588.671,-279.212"/>
<polygon fill="black" stroke="black" points="587.658,-282.562 598.249,-282.28 589.793,-275.896 587.658,-282.562"/>
</g>
<!-- 12:libio.h -->
<g id="node9" class="node"><title>12:libio.h</title>
<g id="a_node9"><a xlink:title="/usr/include/libio.h">
<ellipse fill="none" stroke="black" cx="326.777" cy="-126" rx="44.6926" ry="18"/>
<text text-anchor="middle" x="326.777" y="-122.3" font-family="Times,serif" font-size="14.00">12:libio.h</text>
</a>
</g>
</g>
<!-- 10:stdio.h&#45;&gt;12:libio.h -->
<g id="edge14" class="edge"><title>10:stdio.h&#45;&gt;12:libio.h</title>
<path fill="none" stroke="black" d="M218.472,-160.629C237.459,-154.502 261.077,-146.88 281.318,-140.348"/>
<polygon fill="black" stroke="black" points="282.506,-143.642 290.948,-137.24 280.356,-136.98 282.506,-143.642"/>
</g>
<!-- 23:stdio_lim.h -->
<g id="node10" class="node"><title>23:stdio_lim.h</title>
<g id="a_node10"><a xlink:title="/usr/include/x86_64&#45;linux&#45;gnu/bits/stdio_lim.h">
<ellipse fill="none" stroke="black" cx="326.777" cy="-72" rx="62.2891" ry="18"/>
<text text-anchor="middle" x="326.777" y="-68.3" font-family="Times,serif" font-size="14.00">23:stdio_lim.h</text>
</a>
</g>
</g>
<!-- 10:stdio.h&#45;&gt;23:stdio_lim.h -->
<g id="edge17" class="edge"><title>10:stdio.h&#45;&gt;23:stdio_lim.h</title>
<path fill="none" stroke="black" d="M211.089,-157.536C217.085,-153.837 223.178,-149.592 228.383,-145 247.851,-127.826 243.882,-114.928 264.383,-99 268.417,-95.8656 272.872,-93.0124 277.485,-90.4363"/>
<polygon fill="black" stroke="black" points="279.18,-93.5003 286.481,-85.8224 275.985,-87.2718 279.18,-93.5003"/>
</g>
<!-- 7:sys_errlist.h -->
<g id="node11" class="node"><title>7:sys_errlist.h</title>
<g id="a_node11"><a xlink:title="/usr/include/x86_64&#45;linux&#45;gnu/bits/sys_errlist.h">
<ellipse fill="none" stroke="black" cx="326.777" cy="-18" rx="60.3893" ry="18"/>
<text text-anchor="middle" x="326.777" y="-14.3" font-family="Times,serif" font-size="14.00">7:sys_errlist.h</text>
</a>
</g>
</g>
<!-- 10:stdio.h&#45;&gt;7:sys_errlist.h -->
<g id="edge15" class="edge"><title>10:stdio.h&#45;&gt;7:sys_errlist.h</title>
<path fill="none" stroke="black" d="M212.735,-158.376C218.504,-154.675 224.088,-150.218 228.383,-145 258.403,-108.529 232.149,-79.5299 264.383,-45 267.552,-41.6046 271.225,-38.6118 275.167,-35.9786"/>
<polygon fill="black" stroke="black" points="277.244,-38.8195 284.135,-30.7716 273.73,-32.7658 277.244,-38.8195"/>
</g>
<!-- 15:time.h&#45;&gt;9:features.h -->
<g id="edge28" class="edge"><title>15:time.h&#45;&gt;9:features.h</title>
<path fill="none" stroke="black" d="M221.842,-382.549C235.241,-385.139 250.408,-387.653 264.383,-389 450.357,-406.923 498.017,-398.113 684.752,-392 695.006,-391.664 705.896,-391.118 716.452,-390.488"/>
<polygon fill="black" stroke="black" points="716.677,-393.98 726.439,-389.862 716.24,-386.994 716.677,-393.98"/>
</g>
<!-- 15:time.h&#45;&gt;20:stddef.h -->
<g id="edge31" class="edge"><title>15:time.h&#45;&gt;20:stddef.h</title>
<path fill="none" stroke="black" d="M199.252,-357.205C214.696,-341.828 239.353,-319.343 264.383,-305 369.628,-244.69 507.782,-205.744 581.701,-187.707"/>
<polygon fill="black" stroke="black" points="582.792,-191.044 591.695,-185.3 581.153,-184.239 582.792,-191.044"/>
</g>
<!-- 15:time.h&#45;&gt;24:types.h -->
<g id="edge27" class="edge"><title>15:time.h&#45;&gt;24:types.h</title>
<path fill="none" stroke="black" d="M226.91,-376.078C296.688,-378.078 436.839,-376.65 548.661,-341 567.471,-335.003 586.856,-324.667 602.36,-315.212"/>
<polygon fill="black" stroke="black" points="604.396,-318.066 611.006,-309.786 600.675,-312.137 604.396,-318.066"/>
</g>
<!-- 4:time.h -->
<g id="node12" class="node"><title>4:time.h</title>
<g id="a_node12"><a xlink:title="/usr/include/x86_64&#45;linux&#45;gnu/bits/time.h">
<ellipse fill="none" stroke="black" cx="326.777" cy="-332" rx="40.0939" ry="18"/>
<text text-anchor="middle" x="326.777" y="-328.3" font-family="Times,serif" font-size="14.00">4:time.h</text>
</a>
</g>
</g>
<!-- 15:time.h&#45;&gt;4:time.h -->
<g id="edge29" class="edge"><title>15:time.h&#45;&gt;4:time.h</title>
<path fill="none" stroke="black" d="M218.838,-363.51C238.255,-357.789 262.431,-350.665 282.881,-344.639"/>
<polygon fill="black" stroke="black" points="283.981,-347.964 292.584,-341.78 282.003,-341.25 283.981,-347.964"/>
</g>
<!-- 17:xlocale.h -->
<g id="node13" class="node"><title>17:xlocale.h</title>
<g id="a_node13"><a xlink:title="/usr/include/xlocale.h">
<ellipse fill="none" stroke="black" cx="326.777" cy="-500" rx="53.8905" ry="18"/>
<text text-anchor="middle" x="326.777" y="-496.3" font-family="Times,serif" font-size="14.00">17:xlocale.h</text>
</a>
</g>
</g>
<!-- 15:time.h&#45;&gt;17:xlocale.h -->
<g id="edge30" class="edge"><title>15:time.h&#45;&gt;17:xlocale.h</title>
<path fill="none" stroke="black" d="M195.084,-391.355C209.602,-411.664 235.815,-445.387 264.383,-468 270.344,-472.718 277.107,-477.059 283.912,-480.92"/>
<polygon fill="black" stroke="black" points="282.68,-484.231 293.146,-485.878 285.992,-478.064 282.68,-484.231"/>
</g>
<!-- 3:stdc&#45;predef.h -->
<g id="node14" class="node"><title>3:stdc&#45;predef.h</title>
<g id="a_node14"><a xlink:title="/usr/include/stdc&#45;predef.h">
<ellipse fill="none" stroke="black" cx="933.536" cy="-394" rx="63.8893" ry="18"/>
<text text-anchor="middle" x="933.536" y="-390.3" font-family="Times,serif" font-size="14.00">3:stdc&#45;predef.h</text>
</a>
</g>
</g>
<!-- 9:features.h&#45;&gt;3:stdc&#45;predef.h -->
<g id="edge11" class="edge"><title>9:features.h&#45;&gt;3:stdc&#45;predef.h</title>
<path fill="none" stroke="black" d="M828.801,-388.619C838.921,-389.144 849.738,-389.705 860.426,-390.26"/>
<polygon fill="black" stroke="black" points="860.439,-393.765 870.607,-390.788 860.802,-386.774 860.439,-393.765"/>
</g>
<!-- 8:cdefs.h -->
<g id="node15" class="node"><title>8:cdefs.h</title>
<g id="a_node15"><a xlink:title="/usr/include/x86_64&#45;linux&#45;gnu/sys/cdefs.h">
<ellipse fill="none" stroke="black" cx="933.536" cy="-340" rx="42.7926" ry="18"/>
<text text-anchor="middle" x="933.536" y="-336.3" font-family="Times,serif" font-size="14.00">8:cdefs.h</text>
</a>
</g>
</g>
<!-- 9:features.h&#45;&gt;8:cdefs.h -->
<g id="edge9" class="edge"><title>9:features.h&#45;&gt;8:cdefs.h</title>
<path fill="none" stroke="black" d="M817.218,-374.392C838.907,-367.924 865.989,-359.847 888.457,-353.146"/>
<polygon fill="black" stroke="black" points="889.513,-356.483 898.096,-350.271 887.513,-349.775 889.513,-356.483"/>
</g>
<!-- 21:stubs.h -->
<g id="node16" class="node"><title>21:stubs.h</title>
<g id="a_node16"><a xlink:title="/usr/include/x86_64&#45;linux&#45;gnu/gnu/stubs.h">
<ellipse fill="none" stroke="black" cx="933.536" cy="-448" rx="46.5926" ry="18"/>
<text text-anchor="middle" x="933.536" y="-444.3" font-family="Times,serif" font-size="14.00">21:stubs.h</text>
</a>
</g>
</g>
<!-- 9:features.h&#45;&gt;21:stubs.h -->
<g id="edge10" class="edge"><title>9:features.h&#45;&gt;21:stubs.h</title>
<path fill="none" stroke="black" d="M812.145,-399.606C835.396,-408.952 866.406,-421.417 891.13,-431.356"/>
<polygon fill="black" stroke="black" points="890.027,-434.685 900.611,-435.167 892.638,-428.19 890.027,-434.685"/>
</g>
<!-- 24:types.h&#45;&gt;9:features.h -->
<g id="edge24" class="edge"><title>24:types.h&#45;&gt;9:features.h</title>
<path fill="none" stroke="black" d="M659.556,-309.607C682.542,-324.648 717.521,-347.538 743.198,-364.341"/>
<polygon fill="black" stroke="black" points="741.574,-367.461 751.858,-370.008 745.407,-361.603 741.574,-367.461"/>
</g>
<!-- 22:wordsize.h -->
<g id="node17" class="node"><title>22:wordsize.h</title>
<g id="a_node17"><a xlink:title="/usr/include/x86_64&#45;linux&#45;gnu/bits/wordsize.h">
<ellipse fill="none" stroke="black" cx="1093.68" cy="-317" rx="60.3893" ry="18"/>
<text text-anchor="middle" x="1093.68" y="-313.3" font-family="Times,serif" font-size="14.00">22:wordsize.h</text>
</a>
</g>
</g>
<!-- 24:types.h&#45;&gt;22:wordsize.h -->
<g id="edge25" class="edge"><title>24:types.h&#45;&gt;22:wordsize.h</title>
<path fill="none" stroke="black" d="M682.038,-296.332C762.712,-300.392 929.362,-308.78 1023.68,-313.527"/>
<polygon fill="black" stroke="black" points="1023.53,-317.024 1033.69,-314.031 1023.88,-310.033 1023.53,-317.024"/>
</g>
<!-- 6:typesizes.h -->
<g id="node18" class="node"><title>6:typesizes.h</title>
<g id="a_node18"><a xlink:title="/usr/include/x86_64&#45;linux&#45;gnu/bits/typesizes.h">
<ellipse fill="none" stroke="black" cx="777.297" cy="-248" rx="56.59" ry="18"/>
<text text-anchor="middle" x="777.297" y="-244.3" font-family="Times,serif" font-size="14.00">6:typesizes.h</text>
</a>
</g>
</g>
<!-- 24:types.h&#45;&gt;6:typesizes.h -->
<g id="edge26" class="edge"><title>24:types.h&#45;&gt;6:typesizes.h</title>
<path fill="none" stroke="black" d="M671.183,-282.392C688.215,-276.82 708.894,-270.054 727.39,-264.002"/>
<polygon fill="black" stroke="black" points="728.701,-267.256 737.117,-260.819 726.525,-260.603 728.701,-267.256"/>
</g>
<!-- 5:_G_config.h -->
<g id="node19" class="node"><title>5:_G_config.h</title>
<g id="a_node19"><a xlink:title="/usr/include/_G_config.h">
<ellipse fill="none" stroke="black" cx="486.916" cy="-126" rx="61.99" ry="18"/>
<text text-anchor="middle" x="486.916" y="-122.3" font-family="Times,serif" font-size="14.00">5:_G_config.h</text>
</a>
</g>
</g>
<!-- 12:libio.h&#45;&gt;5:_G_config.h -->
<g id="edge20" class="edge"><title>12:libio.h&#45;&gt;5:_G_config.h</title>
<path fill="none" stroke="black" d="M371.828,-126C385.194,-126 400.233,-126 414.898,-126"/>
<polygon fill="black" stroke="black" points="414.967,-129.5 424.967,-126 414.967,-122.5 414.967,-129.5"/>
</g>
<!-- 19:stdarg.h -->
<g id="node20" class="node"><title>19:stdarg.h</title>
<g id="a_node20"><a xlink:title="/usr/lib/llvm&#45;3.8/lib/clang/3.8.0/include/stdarg.h">
<ellipse fill="none" stroke="black" cx="486.916" cy="-72" rx="50.0912" ry="18"/>
<text text-anchor="middle" x="486.916" y="-68.3" font-family="Times,serif" font-size="14.00">19:stdarg.h</text>
</a>
</g>
</g>
<!-- 12:libio.h&#45;&gt;19:stdarg.h -->
<g id="edge19" class="edge"><title>12:libio.h&#45;&gt;19:stdarg.h</title>
<path fill="none" stroke="black" d="M361.702,-114.416C384.696,-106.564 415.351,-96.0961 440.453,-87.5243"/>
<polygon fill="black" stroke="black" points="441.793,-90.7653 450.126,-84.2215 439.531,-84.1409 441.793,-90.7653"/>
</g>
<!-- 4:time.h&#45;&gt;24:types.h -->
<g id="edge5" class="edge"><title>4:time.h&#45;&gt;24:types.h</title>
<path fill="none" stroke="black" d="M367.226,-333.075C411.684,-333.586 485.938,-332.322 548.661,-321 562.631,-318.478 577.498,-314.302 590.828,-309.979"/>
<polygon fill="black" stroke="black" points="592.317,-313.171 600.683,-306.67 590.089,-306.535 592.317,-313.171"/>
</g>
<!-- 18:timex.h -->
<g id="node21" class="node"><title>18:timex.h</title>
<g id="a_node21"><a xlink:title="/usr/include/x86_64&#45;linux&#45;gnu/bits/timex.h">
<ellipse fill="none" stroke="black" cx="486.916" cy="-294" rx="49.2915" ry="18"/>
<text text-anchor="middle" x="486.916" y="-290.3" font-family="Times,serif" font-size="14.00">18:timex.h</text>
</a>
</g>
</g>
<!-- 4:time.h&#45;&gt;18:timex.h -->
<g id="edge6" class="edge"><title>4:time.h&#45;&gt;18:timex.h</title>
<path fill="none" stroke="black" d="M362.874,-323.567C384.212,-318.439 411.815,-311.806 435.468,-306.123"/>
<polygon fill="black" stroke="black" points="436.427,-309.492 445.333,-303.752 434.792,-302.685 436.427,-309.492"/>
</g>
<!-- 8:cdefs.h&#45;&gt;22:wordsize.h -->
<g id="edge8" class="edge"><title>8:cdefs.h&#45;&gt;22:wordsize.h</title>
<path fill="none" stroke="black" d="M974.441,-334.196C990.963,-331.793 1010.54,-328.946 1028.95,-326.268"/>
<polygon fill="black" stroke="black" points="1029.65,-329.704 1039.04,-324.801 1028.64,-322.777 1029.65,-329.704"/>
</g>
<!-- 11:stubs&#45;64.h -->
<g id="node22" class="node"><title>11:stubs&#45;64.h</title>
<g id="a_node22"><a xlink:title="/usr/include/x86_64&#45;linux&#45;gnu/gnu/stubs&#45;64.h">
<ellipse fill="none" stroke="black" cx="1093.68" cy="-448" rx="58.4896" ry="18"/>
<text text-anchor="middle" x="1093.68" y="-444.3" font-family="Times,serif" font-size="14.00">11:stubs&#45;64.h</text>
</a>
</g>
</g>
<!-- 21:stubs.h&#45;&gt;11:stubs&#45;64.h -->
<g id="edge7" class="edge"><title>21:stubs.h&#45;&gt;11:stubs&#45;64.h</title>
<path fill="none" stroke="black" d="M980.702,-448C994.479,-448 1009.88,-448 1024.74,-448"/>
<polygon fill="black" stroke="black" points="1024.92,-451.5 1034.92,-448 1024.92,-444.5 1024.92,-451.5"/>
</g>
<!-- 5:_G_config.h&#45;&gt;20:stddef.h -->
<g id="edge21" class="edge"><title>5:_G_config.h&#45;&gt;20:stddef.h</title>
<path fill="none" stroke="black" d="M527.754,-139.663C546.506,-146.094 568.961,-153.795 588.363,-160.449"/>
<polygon fill="black" stroke="black" points="587.308,-163.787 597.902,-163.721 589.578,-157.166 587.308,-163.787"/>
</g>
<!-- 5:_G_config.h&#45;&gt;24:types.h -->
<g id="edge23" class="edge"><title>5:_G_config.h&#45;&gt;24:types.h</title>
<path fill="none" stroke="black" d="M503.243,-143.661C529.233,-173.61 582.028,-234.449 611.875,-268.843"/>
<polygon fill="black" stroke="black" points="609.388,-271.317 618.585,-276.575 614.674,-266.729 609.388,-271.317"/>
</g>
<!-- 14:wchar.h -->
<g id="node23" class="node"><title>14:wchar.h</title>
<g id="a_node23"><a xlink:title="/usr/include/wchar.h">
<ellipse fill="none" stroke="black" cx="634.706" cy="-122" rx="50.0912" ry="18"/>
<text text-anchor="middle" x="634.706" y="-118.3" font-family="Times,serif" font-size="14.00">14:wchar.h</text>
</a>
</g>
</g>
<!-- 5:_G_config.h&#45;&gt;14:wchar.h -->
<g id="edge22" class="edge"><title>5:_G_config.h&#45;&gt;14:wchar.h</title>
<path fill="none" stroke="black" d="M548.478,-124.338C557.043,-124.103 565.843,-123.862 574.384,-123.628"/>
<polygon fill="black" stroke="black" points="574.742,-127.119 584.642,-123.346 574.55,-120.122 574.742,-127.119"/>
</g>
<!-- 18:timex.h&#45;&gt;24:types.h -->
<g id="edge18" class="edge"><title>18:timex.h&#45;&gt;24:types.h</title>
<path fill="none" stroke="black" d="M536.462,-294C549.4,-294 563.493,-294 576.834,-294"/>
<polygon fill="black" stroke="black" points="576.857,-297.5 586.857,-294 576.857,-290.5 576.857,-297.5"/>
</g>
</g>
</svg>
