<?xml version="1.0" encoding="UTF-8" standalone="no"?>
<!DOCTYPE svg PUBLIC "-//W3C//DTD SVG 1.1//EN"
 "http://www.w3.org/Graphics/SVG/1.1/DTD/svg11.dtd">
<!-- Generated by graphviz version 2.38.0 (20140413.2041)
 -->
<!-- Title: relation Pages: 1 -->
<svg width="379pt" height="44pt"
 viewBox="0.00 0.00 378.97 44.00" xmlns="http://www.w3.org/2000/svg" xmlns:xlink="http://www.w3.org/1999/xlink">
<g id="graph0" class="graph" transform="scale(1 1) rotate(0) translate(4 40)">
<title>relation</title>
<polygon fill="white" stroke="none" points="-4,4 -4,-40 374.973,-40 374.973,4 -4,4"/>
<!-- 5:stdio_lim.h -->
<g id="node1" class="node"><title>5:stdio_lim.h</title>
<g id="a_node1"><a xlink:title="/usr/include/x86_64&#45;linux&#45;gnu/bits/stdio_lim.h">
<ellipse fill="none" stroke="red" cx="57.8449" cy="-18" rx="57.6901" ry="18"/>
<text text-anchor="middle" x="57.8449" y="-14.3" font-family="Times,serif" font-size="14.00">5:stdio_lim.h</text>
</a>
</g>
</g>
<!-- 6:stdio.h -->
<g id="node2" class="node"><title>6:stdio.h</title>
<g id="a_node2"><a xlink:title="/usr/include/stdio.h">
<ellipse fill="none" stroke="black" cx="193.286" cy="-18" rx="41.6928" ry="18"/>
<text text-anchor="middle" x="193.286" y="-14.3" font-family="Times,serif" font-size="14.00">6:stdio.h</text>
</a>
</g>
</g>
<!-- 6:stdio.h&#45;&gt;5:stdio_lim.h -->
<g id="edge2" class="edge"><title>6:stdio.h&#45;&gt;5:stdio_lim.h</title>
<path fill="none" stroke="black" d="M151.524,-18C143.481,-18 134.842,-18 126.189,-18"/>
<polygon fill="black" stroke="black" points="126.059,-14.5001 116.059,-18 126.059,-21.5001 126.059,-14.5001"/>
</g>
<!-- 2:hoge.cpp -->
<g id="node3" class="node"><title>2:hoge.cpp</title>
<g id="a_node3"><a xlink:title="|/test/hoge.cpp">
<ellipse fill="none" stroke="black" cx="320.928" cy="-18" rx="50.0912" ry="18"/>
<text text-anchor="middle" x="320.928" y="-14.3" font-family="Times,serif" font-size="14.00">2:hoge.cpp</text>
</a>
</g>
</g>
<!-- 2:hoge.cpp&#45;&gt;6:stdio.h -->
<g id="edge1" class="edge"><title>2:hoge.cpp&#45;&gt;6:stdio.h</title>
<path fill="none" stroke="black" d="M270.632,-18C262.225,-18 253.479,-18 245.035,-18"/>
<polygon fill="black" stroke="black" points="244.929,-14.5001 234.929,-18 244.929,-21.5001 244.929,-14.5001"/>
</g>
</g>
</svg>
