<?xml version="1.0" encoding="UTF-8" standalone="no"?>
<!DOCTYPE svg PUBLIC "-//W3C//DTD SVG 1.1//EN"
 "http://www.w3.org/Graphics/SVG/1.1/DTD/svg11.dtd">
<!-- Generated by graphviz version 2.38.0 (20140413.2041)
 -->
<!-- Title: relation Pages: 1 -->
<svg width="659pt" height="136pt"
 viewBox="0.00 0.00 658.96 136.00" xmlns="http://www.w3.org/2000/svg" xmlns:xlink="http://www.w3.org/1999/xlink">
<g id="graph0" class="graph" transform="scale(1 1) rotate(0) translate(4 132)">
<title>relation</title>
<polygon fill="white" stroke="none" points="-4,4 -4,-132 654.955,-132 654.955,4 -4,4"/>
<!-- 5:stddef.h -->
<g id="node1" class="node"><title>5:stddef.h</title>
<g id="a_node1"><a xlink:title="/usr/lib/llvm&#45;3.8/lib/clang/3.8.0/include/stddef.h">
<ellipse fill="none" stroke="red" cx="46.1459" cy="-64" rx="46.2923" ry="18"/>
<text text-anchor="middle" x="46.1459" y="-60.3" font-family="Times,serif" font-size="14.00">5:stddef.h</text>
</a>
</g>
</g>
<!-- 11:time.h -->
<g id="node2" class="node"><title>11:time.h</title>
<g id="a_node2"><a xlink:title="/usr/include/time.h">
<ellipse fill="none" stroke="black" cx="341.726" cy="-110" rx="44.6926" ry="18"/>
<text text-anchor="middle" x="341.726" y="-106.3" font-family="Times,serif" font-size="14.00">11:time.h</text>
</a>
</g>
</g>
<!-- 11:time.h&#45;&gt;5:stddef.h -->
<g id="edge6" class="edge"><title>11:time.h&#45;&gt;5:stddef.h</title>
<path fill="none" stroke="black" d="M299.165,-104.007C256.311,-97.7649 187.571,-87.5774 128.292,-78 118.655,-76.4431 108.387,-74.7207 98.5083,-73.0319"/>
<polygon fill="black" stroke="black" points="98.8471,-69.5389 88.3984,-71.2925 97.6602,-76.4375 98.8471,-69.5389"/>
</g>
<!-- 18:_G_config.h -->
<g id="node3" class="node"><title>18:_G_config.h</title>
<g id="a_node3"><a xlink:title="/usr/include/_G_config.h">
<ellipse fill="none" stroke="black" cx="194.586" cy="-18" rx="66.0889" ry="18"/>
<text text-anchor="middle" x="194.586" y="-14.3" font-family="Times,serif" font-size="14.00">18:_G_config.h</text>
</a>
</g>
</g>
<!-- 18:_G_config.h&#45;&gt;5:stddef.h -->
<g id="edge5" class="edge"><title>18:_G_config.h&#45;&gt;5:stddef.h</title>
<path fill="none" stroke="black" d="M150.441,-31.5527C132.133,-37.3036 110.789,-44.0082 92.2714,-49.8251"/>
<polygon fill="black" stroke="black" points="91.0864,-46.5286 82.595,-52.8647 93.1843,-53.2069 91.0864,-46.5286"/>
</g>
<!-- 20:stdio.h -->
<g id="node4" class="node"><title>20:stdio.h</title>
<g id="a_node4"><a xlink:title="/usr/include/stdio.h">
<ellipse fill="none" stroke="black" cx="468.718" cy="-64" rx="46.2923" ry="18"/>
<text text-anchor="middle" x="468.718" y="-60.3" font-family="Times,serif" font-size="14.00">20:stdio.h</text>
</a>
</g>
</g>
<!-- 20:stdio.h&#45;&gt;5:stddef.h -->
<g id="edge4" class="edge"><title>20:stdio.h&#45;&gt;5:stddef.h</title>
<path fill="none" stroke="black" d="M422.31,-64C344.624,-64 186.485,-64 102.478,-64"/>
<polygon fill="black" stroke="black" points="102.364,-60.5001 92.3643,-64 102.364,-67.5001 102.364,-60.5001"/>
</g>
<!-- 12:libio.h -->
<g id="node6" class="node"><title>12:libio.h</title>
<g id="a_node6"><a xlink:title="/usr/include/libio.h">
<ellipse fill="none" stroke="black" cx="341.726" cy="-18" rx="44.6926" ry="18"/>
<text text-anchor="middle" x="341.726" y="-14.3" font-family="Times,serif" font-size="14.00">12:libio.h</text>
</a>
</g>
</g>
<!-- 20:stdio.h&#45;&gt;12:libio.h -->
<g id="edge7" class="edge"><title>20:stdio.h&#45;&gt;12:libio.h</title>
<path fill="none" stroke="black" d="M434.551,-51.7936C419.458,-46.2391 401.413,-39.5983 385.331,-33.6796"/>
<polygon fill="black" stroke="black" points="386.208,-30.273 375.615,-30.1038 383.791,-36.8423 386.208,-30.273"/>
</g>
<!-- 2:hoge.cpp -->
<g id="node5" class="node"><title>2:hoge.cpp</title>
<g id="a_node5"><a xlink:title="|/test/hoge.cpp">
<ellipse fill="none" stroke="black" cx="600.909" cy="-87" rx="50.0912" ry="18"/>
<text text-anchor="middle" x="600.909" y="-83.3" font-family="Times,serif" font-size="14.00">2:hoge.cpp</text>
</a>
</g>
</g>
<!-- 2:hoge.cpp&#45;&gt;11:time.h -->
<g id="edge2" class="edge"><title>2:hoge.cpp&#45;&gt;11:time.h</title>
<path fill="none" stroke="black" d="M552.138,-91.2722C507.841,-95.2337 442.027,-101.119 396.039,-105.232"/>
<polygon fill="black" stroke="black" points="395.612,-101.756 385.963,-106.133 396.235,-108.729 395.612,-101.756"/>
</g>
<!-- 2:hoge.cpp&#45;&gt;20:stdio.h -->
<g id="edge3" class="edge"><title>2:hoge.cpp&#45;&gt;20:stdio.h</title>
<path fill="none" stroke="black" d="M555.469,-79.149C544.528,-77.2161 532.718,-75.1298 521.464,-73.1417"/>
<polygon fill="black" stroke="black" points="521.783,-69.6439 511.327,-71.3507 520.565,-76.5371 521.783,-69.6439"/>
</g>
<!-- 12:libio.h&#45;&gt;18:_G_config.h -->
<g id="edge1" class="edge"><title>12:libio.h&#45;&gt;18:_G_config.h</title>
<path fill="none" stroke="black" d="M296.785,-18C288.69,-18 280.028,-18 271.305,-18"/>
<polygon fill="black" stroke="black" points="271.068,-14.5001 261.068,-18 271.068,-21.5001 271.068,-14.5001"/>
</g>
</g>
</svg>
