<?xml version="1.0" encoding="UTF-8" standalone="no"?>
<!DOCTYPE svg PUBLIC "-//W3C//DTD SVG 1.1//EN"
 "http://www.w3.org/Graphics/SVG/1.1/DTD/svg11.dtd">
<!-- Generated by graphviz version 2.38.0 (20140413.2041)
 -->
<!-- Title: relation Pages: 1 -->
<svg width="522pt" height="44pt"
 viewBox="0.00 0.00 521.56 44.00" xmlns="http://www.w3.org/2000/svg" xmlns:xlink="http://www.w3.org/1999/xlink">
<g id="graph0" class="graph" transform="scale(1 1) rotate(0) translate(4 40)">
<title>relation</title>
<polygon fill="white" stroke="none" points="-4,4 -4,-40 517.564,-40 517.564,4 -4,4"/>
<!-- 5:_G_config.h -->
<g id="node1" class="node"><title>5:_G_config.h</title>
<g id="a_node1"><a xlink:title="/usr/include/_G_config.h">
<ellipse fill="none" stroke="red" cx="61.7445" cy="-18" rx="61.99" ry="18"/>
<text text-anchor="middle" x="61.7445" y="-14.3" font-family="Times,serif" font-size="14.00">5:_G_config.h</text>
</a>
</g>
</g>
<!-- 12:libio.h -->
<g id="node2" class="node"><title>12:libio.h</title>
<g id="a_node2"><a xlink:title="/usr/include/libio.h">
<ellipse fill="none" stroke="black" cx="204.335" cy="-18" rx="44.6926" ry="18"/>
<text text-anchor="middle" x="204.335" y="-14.3" font-family="Times,serif" font-size="14.00">12:libio.h</text>
</a>
</g>
</g>
<!-- 12:libio.h&#45;&gt;5:_G_config.h -->
<g id="edge2" class="edge"><title>12:libio.h&#45;&gt;5:_G_config.h</title>
<path fill="none" stroke="black" d="M159.237,-18C151.134,-18 142.489,-18 133.828,-18"/>
<polygon fill="black" stroke="black" points="133.685,-14.5001 123.684,-18 133.684,-21.5001 133.685,-14.5001"/>
</g>
<!-- 10:stdio.h -->
<g id="node3" class="node"><title>10:stdio.h</title>
<g id="a_node3"><a xlink:title="/usr/include/stdio.h">
<ellipse fill="none" stroke="black" cx="331.327" cy="-18" rx="46.2923" ry="18"/>
<text text-anchor="middle" x="331.327" y="-14.3" font-family="Times,serif" font-size="14.00">10:stdio.h</text>
</a>
</g>
</g>
<!-- 10:stdio.h&#45;&gt;12:libio.h -->
<g id="edge1" class="edge"><title>10:stdio.h&#45;&gt;12:libio.h</title>
<path fill="none" stroke="black" d="M284.848,-18C276.611,-18 267.946,-18 259.489,-18"/>
<polygon fill="black" stroke="black" points="259.319,-14.5001 249.319,-18 259.319,-21.5001 259.319,-14.5001"/>
</g>
<!-- 2:hoge.cpp -->
<g id="node4" class="node"><title>2:hoge.cpp</title>
<g id="a_node4"><a xlink:title="|/test/hoge.cpp">
<ellipse fill="none" stroke="black" cx="463.518" cy="-18" rx="50.0912" ry="18"/>
<text text-anchor="middle" x="463.518" y="-14.3" font-family="Times,serif" font-size="14.00">2:hoge.cpp</text>
</a>
</g>
</g>
<!-- 2:hoge.cpp&#45;&gt;10:stdio.h -->
<g id="edge3" class="edge"><title>2:hoge.cpp&#45;&gt;10:stdio.h</title>
<path fill="none" stroke="black" d="M413.299,-18C405.005,-18 396.346,-18 387.905,-18"/>
<polygon fill="black" stroke="black" points="387.756,-14.5001 377.756,-18 387.756,-21.5001 387.756,-14.5001"/>
</g>
</g>
</svg>
