<?xml version="1.0" encoding="UTF-8" standalone="no"?>
<!DOCTYPE svg PUBLIC "-//W3C//DTD SVG 1.1//EN"
 "http://www.w3.org/Graphics/SVG/1.1/DTD/svg11.dtd">
<!-- Generated by graphviz version 2.38.0 (20140413.2041)
 -->
<!-- Title: relation Pages: 1 -->
<svg width="344pt" height="44pt"
 viewBox="0.00 0.00 343.88 44.00" xmlns="http://www.w3.org/2000/svg" xmlns:xlink="http://www.w3.org/1999/xlink">
<g id="graph0" class="graph" transform="scale(1 1) rotate(0) translate(4 40)">
<title>relation</title>
<polygon fill="white" stroke="none" points="-4,4 -4,-40 339.877,-40 339.877,4 -4,4"/>
<!-- 5:libio.h -->
<g id="node1" class="node"><title>5:libio.h</title>
<g id="a_node1"><a xlink:title="/usr/include/libio.h">
<ellipse fill="none" stroke="red" cx="40.2964" cy="-18" rx="40.0939" ry="18"/>
<text text-anchor="middle" x="40.2964" y="-14.3" font-family="Times,serif" font-size="14.00">5:libio.h</text>
</a>
</g>
</g>
<!-- 4:stdio.h -->
<g id="node2" class="node"><title>4:stdio.h</title>
<g id="a_node2"><a xlink:title="/usr/include/stdio.h">
<ellipse fill="none" stroke="black" cx="158.189" cy="-18" rx="41.6928" ry="18"/>
<text text-anchor="middle" x="158.189" y="-14.3" font-family="Times,serif" font-size="14.00">4:stdio.h</text>
</a>
</g>
</g>
<!-- 4:stdio.h&#45;&gt;5:libio.h -->
<g id="edge2" class="edge"><title>4:stdio.h&#45;&gt;5:libio.h</title>
<path fill="none" stroke="black" d="M116.33,-18C108.083,-18 99.3289,-18 90.8223,-18"/>
<polygon fill="black" stroke="black" points="90.6196,-14.5001 80.6196,-18 90.6195,-21.5001 90.6196,-14.5001"/>
</g>
<!-- 2:hoge.cpp -->
<g id="node3" class="node"><title>2:hoge.cpp</title>
<g id="a_node3"><a xlink:title="|/test/hoge.cpp">
<ellipse fill="none" stroke="black" cx="285.831" cy="-18" rx="50.0912" ry="18"/>
<text text-anchor="middle" x="285.831" y="-14.3" font-family="Times,serif" font-size="14.00">2:hoge.cpp</text>
</a>
</g>
</g>
<!-- 2:hoge.cpp&#45;&gt;4:stdio.h -->
<g id="edge1" class="edge"><title>2:hoge.cpp&#45;&gt;4:stdio.h</title>
<path fill="none" stroke="black" d="M235.535,-18C227.128,-18 218.382,-18 209.939,-18"/>
<polygon fill="black" stroke="black" points="209.832,-14.5001 199.832,-18 209.832,-21.5001 209.832,-14.5001"/>
</g>
</g>
</svg>
