<?xml version="1.0" encoding="UTF-8" standalone="no"?>
<!DOCTYPE svg PUBLIC "-//W3C//DTD SVG 1.1//EN"
 "http://www.w3.org/Graphics/SVG/1.1/DTD/svg11.dtd">
<!-- Generated by graphviz version 2.38.0 (20140413.2041)
 -->
<!-- Title: relation Pages: 1 -->
<svg width="808pt" height="76pt"
 viewBox="0.00 0.00 807.54 76.00" xmlns="http://www.w3.org/2000/svg" xmlns:xlink="http://www.w3.org/1999/xlink">
<g id="graph0" class="graph" transform="scale(1 1) rotate(0) translate(4 72)">
<title>relation</title>
<polygon fill="white" stroke="none" points="-4,4 -4,-72 803.539,-72 803.539,4 -4,4"/>
<!-- 922:::ns1::g_global -->
<g id="node1" class="node"><title>922:::ns1::g_global</title>
<g id="a_node1"><a xlink:title="::ns1::g_global">
<ellipse fill="none" stroke="red" cx="79.293" cy="-50" rx="79.0865" ry="18"/>
<text text-anchor="middle" x="79.293" y="-46.3" font-family="Times,serif" font-size="14.00">922:::ns1::g_global</text>
</a>
</g>
</g>
<!-- 809:::ns1::ns2::func2::2 -->
<g id="node2" class="node"><title>809:::ns1::ns2::func2::2</title>
<g id="a_node2"><a xlink:title="::ns1::ns2::func2::2">
<ellipse fill="none" stroke="black" cx="289.478" cy="-50" rx="94.7833" ry="18"/>
<text text-anchor="middle" x="289.478" y="-46.3" font-family="Times,serif" font-size="14.00">809:::ns1::ns2::func2::2</text>
</a>
</g>
</g>
<!-- 809:::ns1::ns2::func2::2&#45;&gt;922:::ns1::g_global -->
<g id="edge3" class="edge"><title>809:::ns1::ns2::func2::2&#45;&gt;922:::ns1::g_global</title>
<path fill="none" stroke="black" d="M194.435,-50C185.932,-50 177.338,-50 168.884,-50"/>
<polygon fill="black" stroke="black" points="168.656,-46.5001 158.656,-50 168.656,-53.5001 168.656,-46.5001"/>
</g>
<!-- 810:::ns1::ns2::func3 -->
<g id="node3" class="node"><title>810:::ns1::ns2::func3</title>
<g id="a_node3"><a xlink:title="::ns1::ns2::func3">
<ellipse fill="none" stroke="black" cx="505.512" cy="-18" rx="85.2851" ry="18"/>
<text text-anchor="middle" x="505.512" y="-14.3" font-family="Times,serif" font-size="14.00">810:::ns1::ns2::func3</text>
</a>
</g>
</g>
<!-- 810:::ns1::ns2::func3&#45;&gt;809:::ns1::ns2::func2::2 -->
<g id="edge1" class="edge"><title>810:::ns1::ns2::func3&#45;&gt;809:::ns1::ns2::func2::2</title>
<path fill="none" stroke="black" d="M435.612,-28.3011C416.167,-31.2083 394.791,-34.4043 374.562,-37.4287"/>
<polygon fill="black" stroke="black" points="373.794,-34.0044 364.422,-38.9447 374.829,-40.9275 373.794,-34.0044"/>
</g>
<!-- 810:::ns1::ns2::func3&#45;&gt;810:::ns1::ns2::func3 -->
<g id="edge4" class="edge"><title>810:::ns1::ns2::func3&#45;&gt;810:::ns1::ns2::func3</title>
<path fill="none" stroke="black" d="M541.722,-34.6641C549.769,-44.625 537.699,-54 505.512,-54 484.891,-54 472.527,-50.1525 468.419,-44.7682"/>
<polygon fill="black" stroke="black" points="471.919,-44.9303 469.301,-34.6641 464.945,-44.3222 471.919,-44.9303"/>
</g>
<!-- 814:::ns1::ns31::sub2 -->
<g id="node4" class="node"><title>814:::ns1::ns31::sub2</title>
<g id="a_node4"><a xlink:title="::ns1::ns31::sub2">
<ellipse fill="none" stroke="black" cx="713.096" cy="-50" rx="86.3847" ry="18"/>
<text text-anchor="middle" x="713.096" y="-46.3" font-family="Times,serif" font-size="14.00">814:::ns1::ns31::sub2</text>
</a>
</g>
</g>
<!-- 814:::ns1::ns31::sub2&#45;&gt;809:::ns1::ns2::func2::2 -->
<g id="edge2" class="edge"><title>814:::ns1::ns31::sub2&#45;&gt;809:::ns1::ns2::func2::2</title>
<path fill="none" stroke="black" d="M638.343,-59.167C622.628,-60.7635 606.111,-62.175 590.654,-63 515.079,-67.0335 495.957,-66.7731 420.369,-63 407.563,-62.3607 394.072,-61.3691 380.826,-60.212"/>
<polygon fill="black" stroke="black" points="381.035,-56.7166 370.759,-59.298 380.402,-63.6879 381.035,-56.7166"/>
</g>
<!-- 814:::ns1::ns31::sub2&#45;&gt;810:::ns1::ns2::func3 -->
<g id="edge5" class="edge"><title>814:::ns1::ns31::sub2&#45;&gt;810:::ns1::ns2::func3</title>
<path fill="none" stroke="black" d="M643.354,-39.3C624.467,-36.3603 603.852,-33.1514 584.487,-30.1372"/>
<polygon fill="black" stroke="black" points="584.909,-26.6608 574.49,-28.5811 583.833,-33.5775 584.909,-26.6608"/>
</g>
</g>
</svg>
