<?xml version="1.0" encoding="UTF-8" standalone="no"?>
<!DOCTYPE svg PUBLIC "-//W3C//DTD SVG 1.1//EN"
 "http://www.w3.org/Graphics/SVG/1.1/DTD/svg11.dtd">
<!-- Generated by graphviz version 2.38.0 (20140413.2041)
 -->
<!-- Title: relation Pages: 1 -->
<svg width="841pt" height="130pt"
 viewBox="0.00 0.00 841.34 130.00" xmlns="http://www.w3.org/2000/svg" xmlns:xlink="http://www.w3.org/1999/xlink">
<g id="graph0" class="graph" transform="scale(1 1) rotate(0) translate(4 126)">
<title>relation</title>
<polygon fill="white" stroke="none" points="-4,4 -4,-126 837.336,-126 837.336,4 -4,4"/>
<!-- 1395:::ns1::g_global -->
<g id="node1" class="node"><title>1395:::ns1::g_global</title>
<g id="a_node1"><a xlink:title="::ns1::g_global">
<ellipse fill="none" stroke="red" cx="83.1926" cy="-77" rx="83.3857" ry="18"/>
<text text-anchor="middle" x="83.1926" y="-73.3" font-family="Times,serif" font-size="14.00">1395:::ns1::g_global</text>
</a>
</g>
</g>
<!-- 9:::ns4 -->
<g id="node2" class="node"><title>9:::ns4</title>
<g id="a_node2"><a xlink:title="::ns4">
<ellipse fill="none" stroke="black" cx="301.176" cy="-104" rx="34.394" ry="18"/>
<text text-anchor="middle" x="301.176" y="-100.3" font-family="Times,serif" font-size="14.00">9:::ns4</text>
</a>
</g>
</g>
<!-- 9:::ns4&#45;&gt;1395:::ns1::g_global -->
<g id="edge6" class="edge"><title>9:::ns4&#45;&gt;1395:::ns1::g_global</title>
<path fill="none" stroke="black" d="M267.373,-99.8993C240.521,-96.5426 201.358,-91.6467 166.128,-87.2427"/>
<polygon fill="black" stroke="black" points="166.183,-83.7224 155.826,-85.9549 165.315,-90.6684 166.183,-83.7224"/>
</g>
<!-- 1128:::ns1::ns2::func2::2 -->
<g id="node3" class="node"><title>1128:::ns1::ns2::func2::2</title>
<g id="a_node3"><a xlink:title="::ns1::ns2::func2::2">
<ellipse fill="none" stroke="black" cx="301.176" cy="-50" rx="98.5829" ry="18"/>
<text text-anchor="middle" x="301.176" y="-46.3" font-family="Times,serif" font-size="14.00">1128:::ns1::ns2::func2::2</text>
</a>
</g>
</g>
<!-- 1128:::ns1::ns2::func2::2&#45;&gt;1395:::ns1::g_global -->
<g id="edge5" class="edge"><title>1128:::ns1::ns2::func2::2&#45;&gt;1395:::ns1::g_global</title>
<path fill="none" stroke="black" d="M219.138,-60.1306C201.727,-62.3071 183.318,-64.6084 165.882,-66.788"/>
<polygon fill="black" stroke="black" points="165.233,-63.3419 155.744,-68.0554 166.101,-70.2878 165.233,-63.3419"/>
</g>
<!-- 1130:::ns1::ns2::func3 -->
<g id="node4" class="node"><title>1130:::ns1::ns2::func3</title>
<g id="a_node4"><a xlink:title="::ns1::ns2::func3">
<ellipse fill="none" stroke="black" cx="525.66" cy="-18" rx="89.8845" ry="18"/>
<text text-anchor="middle" x="525.66" y="-14.3" font-family="Times,serif" font-size="14.00">1130:::ns1::ns2::func3</text>
</a>
</g>
</g>
<!-- 1130:::ns1::ns2::func3&#45;&gt;1128:::ns1::ns2::func2::2 -->
<g id="edge1" class="edge"><title>1130:::ns1::ns2::func3&#45;&gt;1128:::ns1::ns2::func2::2</title>
<path fill="none" stroke="black" d="M452.118,-28.4337C432.067,-31.3177 410.099,-34.4773 389.311,-37.4673"/>
<polygon fill="black" stroke="black" points="388.615,-34.0314 379.215,-38.9195 389.611,-40.9601 388.615,-34.0314"/>
</g>
<!-- 1130:::ns1::ns2::func3&#45;&gt;1130:::ns1::ns2::func3 -->
<g id="edge3" class="edge"><title>1130:::ns1::ns2::func3&#45;&gt;1130:::ns1::ns2::func3</title>
<path fill="none" stroke="black" d="M563.628,-34.6641C572.066,-44.625 559.41,-54 525.66,-54 504.039,-54 491.074,-50.1525 486.767,-44.7682"/>
<polygon fill="black" stroke="black" points="490.266,-44.9412 487.691,-34.6641 483.295,-44.3038 490.266,-44.9412"/>
</g>
<!-- 1133:::ns1::ns31::sub2 -->
<g id="node5" class="node"><title>1133:::ns1::ns31::sub2</title>
<g id="a_node5"><a xlink:title="::ns1::ns31::sub2">
<ellipse fill="none" stroke="black" cx="742.344" cy="-50" rx="90.9839" ry="18"/>
<text text-anchor="middle" x="742.344" y="-46.3" font-family="Times,serif" font-size="14.00">1133:::ns1::ns31::sub2</text>
</a>
</g>
</g>
<!-- 1133:::ns1::ns31::sub2&#45;&gt;1128:::ns1::ns2::func2::2 -->
<g id="edge2" class="edge"><title>1133:::ns1::ns31::sub2&#45;&gt;1128:::ns1::ns2::func2::2</title>
<path fill="none" stroke="black" d="M664.149,-59.2326C648.047,-60.8022 631.163,-62.1864 615.352,-63 535.731,-67.0968 515.6,-66.8597 435.968,-63 422.965,-62.3698 409.277,-61.397 395.819,-60.2608"/>
<polygon fill="black" stroke="black" points="395.855,-56.7507 385.588,-59.3631 395.244,-63.7239 395.855,-56.7507"/>
</g>
<!-- 1133:::ns1::ns31::sub2&#45;&gt;1130:::ns1::ns2::func3 -->
<g id="edge4" class="edge"><title>1133:::ns1::ns31::sub2&#45;&gt;1130:::ns1::ns2::func3</title>
<path fill="none" stroke="black" d="M669.26,-39.2554C649.669,-36.3353 628.315,-33.1524 608.24,-30.16"/>
<polygon fill="black" stroke="black" points="608.595,-26.6744 598.188,-28.6618 607.563,-33.5979 608.595,-26.6744"/>
</g>
</g>
</svg>
